<svg viewBox="0 0 259 259" xmlns="http://www.w3.org/2000/svg" xmlns:xlink="http://www.w3.org/1999/xlink">
    <defs>
        <rect id="a" x=".278" y=".024" width="77.848" height="54.599" rx="3"/>
        <rect id="c" x=".34" y=".027" width="95.324" height="62.37" rx="10"/>
        <rect id="e" width="7" height="97.351" rx="3.5"/>
        <rect id="g" width="7" height="97.351" rx="3.5"/>
        <rect id="i" width="7" height="97.351" rx="3.5"/>
        <linearGradient x1="0%" y1="50%" y2="50%" id="k">
            <stop stop-color="#FFF" stop-opacity="0" offset="0%"/>
            <stop offset="100%"/>
        </linearGradient>
    </defs>
    <g fill="none" fill-rule="evenodd">
        <circle fill="#F3F3F3" fill-rule="nonzero" cx="129.5" cy="129.5" r="129.5"/>
        <g transform="rotate(-101 89.754 22.68)">
            <mask id="b" fill="#fff">
                <use xlink:href="#a"/>
            </mask>
            <use fill="#EAEFF7" fill-rule="nonzero" xlink:href="#a"/>
            <path fill="#AAB8D0" fill-rule="nonzero" opacity=".396" mask="url(#b)" d="M-7.467-6.708h91.093v19.377H-7.467z"/>
            <rect fill="#FFF" fill-rule="nonzero" x="51.52" y="3.726" width="5.227" height="5.217" rx="2.608"/>
            <rect fill="#FFF" fill-rule="nonzero" x="58.987" y="3.726" width="5.227" height="5.217" rx="2.608"/>
            <rect fill="#FFF" fill-rule="nonzero" x="66.453" y="3.726" width="5.227" height="5.217" rx="2.608"/>
        </g>
        <g transform="rotate(-55 131.226 -49.99)">
            <mask id="d" fill="#fff">
                <use xlink:href="#c"/>
            </mask>
            <use fill="#0065FF" fill-rule="nonzero" xlink:href="#c"/>
            <path fill="#80ADF7" fill-rule="nonzero" opacity=".396" mask="url(#d)" d="M-9.143-7.662H102.4v22.135H-9.143z"/>
            <rect fill="#0050CA" fill-rule="nonzero" x="63.086" y="4.257" width="6.4" height="5.959" rx="2.98"/>
            <rect fill="#0050CA" fill-rule="nonzero" x="72.229" y="4.257" width="6.4" height="5.959" rx="2.98"/>
            <rect fill="#0050CA" fill-rule="nonzero" x="81.371" y="4.257" width="6.4" height="5.959" rx="2.98"/>
        </g>
        <text font-family="WorkSans-SemiBold, Work Sans" font-size="30" font-weight="500" letter-spacing="-1.95" fill="#FFF" transform="rotate(-55 142.223 -18.882)">
            <tspan x="60.343" y="50.986">ADS</tspan>
        </text>
        <g>
            <path d="M77.002 100.671h87.125a4 4 0 0 1 3.989 4.303l-8.827 116.172a4 4 0 0 1-3.988 3.697H85.37a4 4 0 0 1-3.99-3.712l-8.368-116.173a4 4 0 0 1 3.99-4.287z" fill="#E1E4E9" fill-rule="nonzero"/>
            <g transform="translate(117 114.578)">
                <mask id="f" fill="#fff">
                    <use xlink:href="#e"/>
                </mask>
                <use fill="#CDD3DB" fill-rule="nonzero" xlink:href="#e"/>
                <rect fill="#EFF1F4" fill-rule="nonzero" mask="url(#f)" x="-2" width="7" height="97.351" rx="3.5"/>
            </g>
            <g transform="rotate(-4 1693.028 -1245.741)">
                <mask id="h" fill="#fff">
                    <use xlink:href="#g"/>
                </mask>
                <use fill="#CDD3DB" fill-rule="nonzero" xlink:href="#g"/>
                <rect fill="#EFF1F4" fill-rule="nonzero" mask="url(#h)" x="-2" width="7" height="97.351" rx="3.5"/>
            </g>
            <g transform="rotate(4 -1567.618 2145.065)">
                <mask id="j" fill="#fff">
                    <use xlink:href="#i"/>
                </mask>
                <use fill="#CDD3DB" fill-rule="nonzero" xlink:href="#i"/>
                <rect fill="#EFF1F4" fill-rule="nonzero" mask="url(#j)" x="-2" width="7" height="97.351" rx="3.5"/>
            </g>
            <path fill="url(#k)" fill-rule="nonzero" opacity=".031" transform="rotate(-45 226.214 48.329)" d="M15.867 48.028l104.652.347-15.046 71.758-53.02 4.063z"/>
            <g transform="rotate(69 14.884 190.655)" fill-rule="nonzero">
                <rect fill="#E9EBEE" y="22.848" width="109" height="17.881" rx="4"/>
                <path d="M54 34.227c12.703 0 23 1.24 23-11.38C77 10.23 66.703 0 54 0S31 10.23 31 22.848c0 12.618 10.297 11.379 23 11.379z" stroke="#E9EBEE" stroke-width="9"/>
            </g>
        </g>
    </g>
</svg>
