<svg viewBox="0 0 1025 813" xmlns="http://www.w3.org/2000/svg" xmlns:xlink="http://www.w3.org/1999/xlink">
    <defs>
        <rect id="a" width="64.922" height="31.54" rx="1"/>
        <rect id="c" width="64.922" height="31.54" rx="1"/>
        <rect id="e" width="64.922" height="31.54" rx="1"/>
        <rect id="g" width="64.922" height="31.54" rx="1"/>
        <rect id="i" width="64.922" height="31.54" rx="1"/>
        <rect id="k" width="64.922" height="31.54" rx="1"/>
        <rect id="m" width="64.922" height="31.54" rx="1"/>
        <rect id="o" width="64.922" height="31.54" rx="1"/>
        <rect id="q" width="64.922" height="31.54" rx="1"/>
        <rect id="s" width="64.922" height="31.54" rx="1"/>
        <rect id="u" width="64.922" height="31.54" rx="1"/>
        <rect id="w" width="64.922" height="31.54" rx="1"/>
        <rect id="y" width="64.922" height="31.54" rx="1"/>
        <rect id="A" width="64.922" height="31.54" rx="1"/>
        <rect id="C" width="64.922" height="31.54" rx="1"/>
        <linearGradient x1="0%" y1="50%" x2="80.054%" y2="75.893%" id="E">
            <stop stop-color="#E9F3FE" stop-opacity="0" offset="0%"/>
            <stop stop-color="#CFE2FC" stop-opacity=".148" offset="100%"/>
        </linearGradient>
    </defs>
    <g transform="translate(0 -3)" fill="none" fill-rule="evenodd">
        <g transform="translate(5 505)" fill-rule="nonzero">
            <path d="M104.797 208.52l4.778-2.87-35.884-59.726a2.787 2.787 0 0 0-3.824-.953 2.787 2.787 0 0 0-.954 3.824l35.884 59.726z" fill="#CCC"/>
            <path d="M72.15 144.97a2.787 2.787 0 0 1 .954 3.825L37.22 208.521l-4.777-2.871 35.883-59.726a2.787 2.787 0 0 1 3.824-.953z" fill="#D8D8D8"/>
            <path d="M39.916 91l25.482 8.908c3.582 1.63 6.113 2.196 7.595 1.698 2.221-.747 6.32-3.047 9.595-2.86 3.275.186 6.176 2.86 6.946 3.971.77 1.111.484 1.874-.125 1.874-.608 0-3.214-1.616-5.15-1.874-1.937-.257-5.832 1.205-5.832 2.418 0 1.214 1.21 1.388 2.121 1.582.442.094 1.014.155 1.717.181.476.018.852.41.852.886 0 .504-.372.931-.872 1-2.37.326-3.94.283-4.71-.13-1.291-.695-3.32-2.796-5.101-3.015-1.782-.22-11.85-1.275-13.937-.89-1.392.258-5.863-.79-13.415-3.143L39 100l.916-9z" fill="#F0A387"/>
            <path d="M22 92l16.782 43.253c2.616 6.498 7.861 9.747 15.736 9.747h49.031c1.634-.217 2.451-1 2.451-2.35v-5.337H50.707L32.479 92H22z" fill="#2B8FB2"/>
            <path d="M140 176.694c0 .281 6.496 13.644 7.63 15.414 1.135 1.77 3.517 6.542 4.9 7.765 1.383 1.223 3.784 4.849 6.095 5.612 1.542.51 2.666.64 3.375.395-1.471-1.607-2.596-3.233-3.375-4.878-1.168-2.468-5.08-15.859-5.785-17.262-.47-.936-1.705-4.516-3.706-10.74-6.09 2.275-9.134 3.506-9.134 3.694zM47.697 34.704c2.613 2.524 5.856 4.838 9.569 4.436 3.76-.407 7.992-3.565 11.085-6.768 6.148-6.367 6.868-15.645 1.61-20.724-5.26-5.08-14.507-4.035-20.655 2.331-6.148 6.367-6.868 15.646-1.61 20.725zM110.046 166.067l-5.641 21.961-3.656 7.926-.749 1.288 1.253 8.758c2.685-3.542 4.173-5.658 4.463-6.349.436-1.036 7.809-14.865 8.439-16.593.63-1.729 5.342-13.157 5.856-14.101.342-.63.672-1.28.989-1.952L110.5 165l-.454 1.067z" fill="#F0A387"/>
            <path d="M115.903 143.093c1.739-.113 2.071.773.996 2.659-1.074 1.885-3.707 9.104-7.899 21.658 1.675 1.527 3.102 2.563 4.282 3.108 1.18.544 3.069 1.038 5.666 1.482L134 141.35l-4.038-9.348L115.034 131l.869 12.093z" fill="#E49900"/>
            <path d="M81.955 114.114c24.55 4.208 37.797 6.86 39.743 7.954 2.918 1.642 6.361 3.285 8.36 5.852 2 2.566 9.187 17.144 11.175 24.058 1.326 4.61 3.915 11.973 7.767 22.087-1.965 1.158-3.534 1.904-4.707 2.238-1.173.334-3.038.566-5.595.697-8.44-18.35-13.806-28.657-16.098-30.92-2.292-2.261-6.278-3.392-11.956-3.392H70V113l11.955 1.114z" fill="#FFAB00"/>
            <path d="M59 38.621c-3.846-.756-6.383 1.284-7.613 6.12A415.087 415.087 0 0 0 47.827 60l-11.024-4.24L28 41.816l8.803-18.748L50.398 17l7.111 12.602L59 38.622z" fill="#F0A387"/>
            <path d="M76.427 9.436c.789 2.781.74 9.144 0 11.279s-2.508 5.49-5.359 5.873c-2.85.384-4.369.498-6.318-1.15-1.3-1.1-2.366-.071-3.2 3.084.044 1.425-.882 1.891-2.777 1.4-2.843-.739 1.116-5.014-.514-6.628-1.63-1.614-6.476-.711-6.071 3.535.405 4.246 1.16 6.675-.222 8.544-1.382 1.869-4.117 3.731-6.175 4.848-2.059 1.118-4.238 4.521-4.238 5.813 0 1.292-4.943 6.993-11.325 8.89-6.382 1.898-10.028-32.483 0-32.483s13.518-4.708 17.578-14.124c4.06-9.415 16.944-9.415 21.713-6.882 4.77 2.533 6.119 5.22 6.908 8z" fill="#000"/>
            <ellipse fill="#000" transform="rotate(34 35.67 38.768)" cx="35.67" cy="38.768" rx="16.722" ry="19.509"/>
            <path d="M37.48 44.485c2.686 3.196 6.714 4.473 9.93 8.895 4.47 6.143 7.821 15.386 7.821 17.785 0 4.126-3.209 6.823-6.361 8.23-3.152 1.405 2.703 15.43 6.361 20.923 3.659 5.494 4.267 8.821 9.153 9.667 3.16.548 9.409 1.966 18.746 4.255a1 1 0 0 1 .753 1.101l-3.74 28.467c-22.834.998-35.485-1.891-37.954-8.667-3.705-10.163 0-13.74 0-16.525 0-2.784-6.77-13.605-12.236-15.951-5.466-2.347-8.91-16.078-7.726-25.142 1.185-9.064-2.93-22.24-2.12-25.401.808-3.162 10.958-15.274 17.374-7.637z" fill="#1523A4"/>
            <path d="M21 92c10.417 7.806 16.655 12.78 18.713 14.92 3.087 3.212 4.622 5.876 2.904 13.188-1.718 7.313 2.58 13.022 5.073 15.778 2.492 2.757 7.366 4.573 13.123 3.582 5.756-.99 7.021-3.88 15.818-3.88 8.798 0 13.047 3.157 17.82 5.272 3.182 1.41 6.365 2.05 9.549 1.923v1.688c-.195.315-2.195.486-6 .51-3.805.025-18.863.025-45.176 0-6.981-.673-11.48-3.241-13.497-7.703C37.31 132.816 31.201 117.724 21 92z" fill="#00BED6"/>
            <path d="M20.363 57C11.439 67.053 6.096 73.353 4.333 75.9 1.688 79.724.537 82.133 1.17 84.736c.632 2.603 2.851 7.394 10.757 8.998 7.905 1.604 25.726 6.103 28.19 6.551 2.465.45 5.525 1.642 6.055 2.155.53.512 1.56 2.636 2.012 3.414.452.778 8.055 7.414 9.24 7.903 1.184.489 2.707.698.3-3.967-2.408-4.664-3.07-9.072-10.534-12.564-7.465-3.492-22.636-8.366-27.358-10.307-4.721-1.942-7.784-4.54-4.167-8.274 2.411-2.49 7.17-6.66 14.278-12.511L20.363 57z" fill="#F0A387"/>
            <path d="M44 53.064L30.756 69.342a2 2 0 0 1-1.97.694c-7.703-1.65-11.92-5.59-12.652-11.823-1.154-9.829 5.491-11.823 6.39-15.51.6-2.458 1.953-3.24 4.059-2.345L44 53.064z" fill="#071382"/>
            <path d="M50.128 5c-13.774 13.518-26.3 18.61-37.578 15.274-16.916-5.003-19.514 36.649 9.72 38.592C41.76 60.16 52.003 52.098 53 34.678c-3.854-6.82-5.213-11.393-4.075-13.717 1.138-2.325 1.539-7.645 1.203-15.961zM146.602 193.387c-1.642 1.63-3.847 4.72-3.58 5.673.267.952 3.433 3.842 5.284 4.888 1.234.697 5.702 3.33 13.406 7.896l5.131 3.156c.771-.732 1.157-1.202 1.157-1.41 0-.158-1.127-1.594-3.38-4.307-.466-.56-1.27-1.521-2.416-2.885-1.981.272-3.352.073-4.112-.597-1.14-1.005-8.126-8.224-9.033-9.923-.906-1.7-1.453-3.744-2.457-2.49zM104.628 188c-3.964.828-6.06 1.874-6.289 3.136-.228 1.262-.675 9.55-1.339 24.864h1.34c2.939-5.966 4.563-9.38 4.87-10.244.463-1.295 1.15-2.362.576-3.11-.575-.749-2.368-5.865-1.676-7.638.46-1.183 1.424-3.32 2.89-6.413l-.372-.595z" fill="#000"/>
            <path d="M118.763 83.408l8.672-3.079a1 1 0 0 1 1.157 1.511l-23.7 34.277-8.588-1.636 20.51-29.582a4 4 0 0 1 1.95-1.49z" fill="#D8D8D8"/>
            <path d="M69.25 108.707l35.95 6.988-1.628 2.305-34.848-6.554a1 1 0 0 1-.797-1.173l.15-.775a1 1 0 0 1 1.173-.791z" fill="#CCC"/>
        </g>
        <g transform="translate(380)">
            <path d="M59.285 227.019c2.09.31 3.21 4.356 2.503 9.04-.709 4.684-2.982 8.23-5.073 7.922-2.09-.308-3.21-4.356-2.503-9.041.709-4.686 2.977-8.23 5.073-7.921z" fill="#C1DBFF"/>
            <path d="M62.127 232.33c1.72 1.212.82 5.408-2.012 9.366-2.83 3.959-6.52 6.186-8.242 4.973-1.72-1.213-.82-5.407 2.012-9.365 2.83-3.959 6.522-6.186 8.242-4.973z" fill="#C1DBFF"/>
            <path d="M200.902 81.485c57.987 60.407 87.574 125.95 66.095 146.39-21.479 20.443-85.908-11.957-143.897-72.361C65.111 95.11 35.521 29.559 57.005 9.122c21.484-20.436 85.909 11.955 143.897 72.363z" fill="#E7F2FF"/>
            <path d="M194.977 86.913c48.408 50.732 73.108 105.776 55.177 122.944-17.931 17.167-71.718-10.043-120.129-60.772-48.41-50.729-73.112-105.78-55.177-122.943 17.936-17.163 71.718 10.04 120.129 60.771z" fill="#E2EDFB"/>
            <path d="M164.562 114.017c2.668 2.35 3.23 5.812 1.27 7.738-1.96 1.925-5.73 1.579-8.396-.77-2.666-2.35-3.23-5.812-1.261-7.738 1.969-1.926 5.719-1.584 8.387.77z" fill="#041427"/>
            <path d="M159.509 116l3.491 3.545v28.91c0 1.958-1.567 3.545-3.5 3.545s-3.5-1.587-3.5-3.545v-28.91l3.509-3.545z" fill="#041427"/>
            <circle fill="#CFE2FC" cx="159.5" cy="152.5" r="10.5"/>
            <circle fill="#B3D2FC" cx="158.5" cy="152.5" r="6.5"/>
            <circle fill="#82AFEB" cx="157.5" cy="154.5" r="6.5"/>
            <path d="M125.53 158.611l30.22-10.28c2.794-1.021 5.89.403 6.918 3.18 1.026 2.777-.406 5.856-3.2 6.877l-30.216 10.281c-2.794 1.022-5.891-.401-6.92-3.179-1.027-2.777.405-5.857 3.198-6.879z" fill="#041427"/>
            <circle fill="#CFE2FC" cx="126.5" cy="166.5" r="11.5"/>
            <circle fill="#B3D2FC" cx="126" cy="166" r="7"/>
            <circle fill="#82AFEB" cx="125" cy="167" r="7"/>
            <path d="M97.292 231.91l21.246-65.362c.995-2.755 4.03-4.206 6.817-3.258 2.787.948 4.291 3.943 3.378 6.726l-21.244 65.361c-.964 2.799-4.028 4.29-6.844 3.333-2.815-.958-4.317-4.003-3.353-6.8z" fill="#041427"/>
            <circle fill="#CFE2FC" cx="90" cy="251" r="44"/>
            <path d="M89.978 221.329c14.316 2.475 23.472 18.211 20.443 35.149-3.028 16.937-17.082 28.662-31.4 26.194-14.316-2.468-23.47-18.211-20.442-35.149 3.028-16.937 17.082-28.666 31.4-26.194z" fill="#B3D2FC"/>
            <path d="M89.565 223.303c13.235 2.276 21.7 16.747 18.9 32.314-2.8 15.568-15.795 26.356-29.03 24.08-13.235-2.276-21.7-16.747-18.9-32.314 2.8-15.568 15.795-26.356 29.03-24.08z" fill="#A2C7F8"/>
            <path d="M88.754 224.292c12.426 2.195 20.37 16.156 17.745 31.18-2.625 15.025-14.826 25.427-27.252 23.237-12.426-2.19-20.373-16.157-17.745-31.181 2.629-15.025 14.826-25.428 27.252-23.236z" fill="#041427"/>
            <path d="M88.944 226.271c11.615 2.037 19.041 14.982 16.587 28.916-2.453 13.933-13.868 23.578-25.475 21.542-11.608-2.037-19.043-14.98-16.587-28.914 2.455-13.934 13.855-23.58 25.475-21.544z" stroke="#E91E63"/>
            <path d="M86.481 238.15c6.483 1.118 10.627 8.225 9.257 15.874-1.369 7.649-7.736 12.945-14.22 11.827-6.482-1.118-10.626-8.225-9.256-15.874 1.369-7.65 7.727-12.948 14.22-11.828z" stroke="#0FF" fill="#041427"/>
            <path d="M85.05 244.085c4.055.64 6.643 4.703 5.786 9.07-.857 4.369-4.832 7.401-8.887 6.76-4.054-.643-6.642-4.703-5.785-9.071.857-4.369 4.832-7.398 8.887-6.759z" fill="#E6FFFF"/>
            <path d="M83 273.997c2.447.057 4.864-.632 7-1.997M92 270s1.318-.195 3-2" stroke="#0FF" stroke-width="2"/>
            <path d="M97 265s1.202-.834 2-4" stroke="#E91E63" stroke-width="2"/>
            <path d="M76.41 235.01c1.106.295 1.794 1.552 1.536 2.809l-.01.045c-.152 1.31-1.188 2.249-2.346 2.125-1.106-.294-1.794-1.55-1.536-2.808l.01-.045c.152-1.31 1.188-2.249 2.346-2.125z" fill="#E6FFFF"/>
            <path d="M97.94 228.309s3.157 29.165-36.124 32.691c-.252-1.972 0-2.11 0-2.11s-2.15-11.104.53-16.345c2.228-4.921 7.2-19.841 26.031-18.454 2.015.31 5.036.506 9.562 4.218z" fill="#E0F2FF" opacity=".15"/>
        </g>
        <path d="M797 508.77v207.46c0 2.635-3.009 4.77-6.72 4.77h-70.56c-3.711 0-6.72-2.135-6.72-4.77V508.77c0-2.635 3.009-4.77 6.72-4.77h70.56c3.711 0 6.72 2.135 6.72 4.77z" fill="#0055D6" fill-rule="nonzero"/>
        <path d="M885 508.77v207.46c0 2.635-3.009 4.77-6.72 4.77h-70.56c-3.711 0-6.72-2.135-6.72-4.77V508.77c0-2.635 3.009-4.77 6.72-4.77h70.56c3.711 0 6.72 2.135 6.72 4.77zM973 508.77v207.46c0 2.635-3.009 4.77-6.72 4.77h-70.56c-3.711 0-6.72-2.135-6.72-4.77V508.77c0-2.635 3.009-4.77 6.72-4.77h70.56c3.711 0 6.72 2.135 6.72 4.77z" fill="#BABFC5" fill-rule="nonzero"/>
        <path d="M793 511.412v200.176c0 1.332-1.599 2.412-3.571 2.412H721.57c-1.972 0-3.571-1.08-3.571-2.412V511.412c0-1.332 1.599-2.412 3.571-2.412h67.858c1.972 0 3.571 1.08 3.571 2.412z" fill="#0065FF" fill-rule="nonzero"/>
        <g transform="translate(724 557)">
            <mask id="b" fill="#fff">
                <use xlink:href="#a"/>
            </mask>
            <use fill="#E5E8EC" fill-rule="nonzero" xlink:href="#a"/>
            <ellipse fill="#000" fill-rule="nonzero" opacity=".028" mask="url(#b)" cx="-11.193" cy="-19.732" rx="58.206" ry="54.003"/>
            <rect fill="#FFF" fill-rule="nonzero" x="5.219" y="10.121" width="2.456" height="10.76" rx="1"/>
            <rect fill="#FFF" fill-rule="nonzero" x="9.133" y="10.121" width="2.456" height="10.76" rx="1"/>
            <rect fill="#FFF" fill-rule="nonzero" x="13.047" y="10.121" width="2.456" height="10.76" rx="1"/>
            <ellipse fill="#36B37E" fill-rule="nonzero" cx="54.496" cy="16.343" rx="3.611" ry="3.692"/>
            <ellipse fill="#FF8C00" fill-rule="nonzero" cx="45.464" cy="16.378" rx="2.407" ry="2.462"/>
            <ellipse fill="#FF8C00" fill-rule="nonzero" cx="36.33" cy="16.378" rx="2.407" ry="2.462"/>
        </g>
        <g transform="translate(723 522)">
            <mask id="d" fill="#fff">
                <use xlink:href="#c"/>
            </mask>
            <use fill="#E5E8EC" fill-rule="nonzero" xlink:href="#c"/>
            <ellipse fill="#000" fill-rule="nonzero" opacity=".028" mask="url(#d)" cx="-11.193" cy="-19.732" rx="58.206" ry="54.003"/>
            <rect fill="#FFF" fill-rule="nonzero" x="5.219" y="10.121" width="2.456" height="10.76" rx="1"/>
            <rect fill="#FFF" fill-rule="nonzero" x="9.133" y="10.121" width="2.456" height="10.76" rx="1"/>
            <rect fill="#FFF" fill-rule="nonzero" x="13.047" y="10.121" width="2.456" height="10.76" rx="1"/>
            <ellipse fill="#36B37E" fill-rule="nonzero" cx="54.496" cy="16.343" rx="3.611" ry="3.692"/>
            <ellipse fill="#FF8C00" fill-rule="nonzero" cx="45.464" cy="16.378" rx="2.407" ry="2.462"/>
            <ellipse fill="#FF8C00" fill-rule="nonzero" cx="36.33" cy="16.378" rx="2.407" ry="2.462"/>
        </g>
        <g transform="translate(724 592)">
            <mask id="f" fill="#fff">
                <use xlink:href="#e"/>
            </mask>
            <use fill="#E5E8EC" fill-rule="nonzero" xlink:href="#e"/>
            <ellipse fill="#000" fill-rule="nonzero" opacity=".028" mask="url(#f)" cx="-11.193" cy="-19.732" rx="58.206" ry="54.003"/>
            <rect fill="#FFF" fill-rule="nonzero" x="5.219" y="10.121" width="2.456" height="10.76" rx="1"/>
            <rect fill="#FFF" fill-rule="nonzero" x="9.133" y="10.121" width="2.456" height="10.76" rx="1"/>
            <rect fill="#FFF" fill-rule="nonzero" x="13.047" y="10.121" width="2.456" height="10.76" rx="1"/>
            <ellipse fill="#36B37E" fill-rule="nonzero" cx="54.496" cy="16.343" rx="3.611" ry="3.692"/>
            <ellipse fill="#FF8C00" fill-rule="nonzero" cx="45.464" cy="16.378" rx="2.407" ry="2.462"/>
            <ellipse fill="#FF8C00" fill-rule="nonzero" cx="36.33" cy="16.378" rx="2.407" ry="2.462"/>
        </g>
        <g transform="translate(724 627)">
            <mask id="h" fill="#fff">
                <use xlink:href="#g"/>
            </mask>
            <use fill="#E5E8EC" fill-rule="nonzero" xlink:href="#g"/>
            <ellipse fill="#000" fill-rule="nonzero" opacity=".028" mask="url(#h)" cx="-11.193" cy="-19.732" rx="58.206" ry="54.003"/>
            <rect fill="#FFF" fill-rule="nonzero" x="5.219" y="10.121" width="2.456" height="10.76" rx="1"/>
            <rect fill="#FFF" fill-rule="nonzero" x="9.133" y="10.121" width="2.456" height="10.76" rx="1"/>
            <rect fill="#FFF" fill-rule="nonzero" x="13.047" y="10.121" width="2.456" height="10.76" rx="1"/>
            <ellipse fill="#36B37E" fill-rule="nonzero" cx="54.496" cy="16.343" rx="3.611" ry="3.692"/>
            <ellipse fill="#FF8C00" fill-rule="nonzero" cx="45.464" cy="16.378" rx="2.407" ry="2.462"/>
            <ellipse fill="#FF8C00" fill-rule="nonzero" cx="36.33" cy="16.378" rx="2.407" ry="2.462"/>
        </g>
        <g transform="translate(724 662)">
            <mask id="j" fill="#fff">
                <use xlink:href="#i"/>
            </mask>
            <use fill="#E5E8EC" fill-rule="nonzero" xlink:href="#i"/>
            <ellipse fill="#000" fill-rule="nonzero" opacity=".028" mask="url(#j)" cx="-11.193" cy="-19.732" rx="58.206" ry="54.003"/>
            <rect fill="#FFF" fill-rule="nonzero" x="5.219" y="10.121" width="2.456" height="10.76" rx="1"/>
            <rect fill="#FFF" fill-rule="nonzero" x="9.133" y="10.121" width="2.456" height="10.76" rx="1"/>
            <rect fill="#FFF" fill-rule="nonzero" x="13.047" y="10.121" width="2.456" height="10.76" rx="1"/>
            <ellipse fill="#36B37E" fill-rule="nonzero" cx="54.496" cy="16.343" rx="3.611" ry="3.692"/>
            <ellipse fill="#FF8C00" fill-rule="nonzero" cx="45.464" cy="16.378" rx="2.407" ry="2.462"/>
            <ellipse fill="#FF8C00" fill-rule="nonzero" cx="36.33" cy="16.378" rx="2.407" ry="2.462"/>
        </g>
        <path d="M880 512.376v197.248c0 1.312-1.599 2.376-3.571 2.376H808.57c-1.972 0-3.571-1.064-3.571-2.376V512.376c0-1.312 1.599-2.376 3.571-2.376h67.858c1.972 0 3.571 1.064 3.571 2.376zM968 512.376v197.248c0 1.312-1.599 2.376-3.571 2.376H896.57c-1.972 0-3.571-1.064-3.571-2.376V512.376c0-1.312 1.599-2.376 3.571-2.376h67.858c1.972 0 3.571 1.064 3.571 2.376z" fill="#EFF0F2" fill-rule="nonzero"/>
        <g transform="translate(810 522)">
            <mask id="l" fill="#fff">
                <use xlink:href="#k"/>
            </mask>
            <use fill="#E5E8EC" fill-rule="nonzero" xlink:href="#k"/>
            <ellipse fill="#000" fill-rule="nonzero" opacity=".028" mask="url(#l)" cx="-11.193" cy="-19.732" rx="58.206" ry="54.003"/>
            <rect fill="#FFF" fill-rule="nonzero" x="5.219" y="10.121" width="2.456" height="10.76" rx="1"/>
            <rect fill="#FFF" fill-rule="nonzero" x="9.133" y="10.121" width="2.456" height="10.76" rx="1"/>
            <rect fill="#FFF" fill-rule="nonzero" x="13.047" y="10.121" width="2.456" height="10.76" rx="1"/>
            <ellipse fill="#36B37E" fill-rule="nonzero" cx="54.496" cy="16.343" rx="3.611" ry="3.692"/>
            <ellipse fill="#FF8C00" fill-rule="nonzero" cx="45.464" cy="16.378" rx="2.407" ry="2.462"/>
            <ellipse fill="#FF8C00" fill-rule="nonzero" cx="36.33" cy="16.378" rx="2.407" ry="2.462"/>
        </g>
        <g transform="translate(898 522)">
            <mask id="n" fill="#fff">
                <use xlink:href="#m"/>
            </mask>
            <use fill="#E5E8EC" fill-rule="nonzero" xlink:href="#m"/>
            <ellipse fill="#000" fill-rule="nonzero" opacity=".028" mask="url(#n)" cx="-11.193" cy="-19.732" rx="58.206" ry="54.003"/>
            <rect fill="#FFF" fill-rule="nonzero" x="5.219" y="10.121" width="2.456" height="10.76" rx="1"/>
            <rect fill="#FFF" fill-rule="nonzero" x="9.133" y="10.121" width="2.456" height="10.76" rx="1"/>
            <rect fill="#FFF" fill-rule="nonzero" x="13.047" y="10.121" width="2.456" height="10.76" rx="1"/>
            <ellipse fill="#36B37E" fill-rule="nonzero" cx="54.496" cy="16.343" rx="3.611" ry="3.692"/>
            <ellipse fill="#FF8C00" fill-rule="nonzero" cx="45.464" cy="16.378" rx="2.407" ry="2.462"/>
            <ellipse fill="#FF8C00" fill-rule="nonzero" cx="36.33" cy="16.378" rx="2.407" ry="2.462"/>
        </g>
        <g transform="translate(810 557)">
            <mask id="p" fill="#fff">
                <use xlink:href="#o"/>
            </mask>
            <use fill="#E5E8EC" fill-rule="nonzero" xlink:href="#o"/>
            <ellipse fill="#000" fill-rule="nonzero" opacity=".028" mask="url(#p)" cx="-11.193" cy="-19.732" rx="58.206" ry="54.003"/>
            <rect fill="#FFF" fill-rule="nonzero" x="5.219" y="10.121" width="2.456" height="10.76" rx="1"/>
            <rect fill="#FFF" fill-rule="nonzero" x="9.133" y="10.121" width="2.456" height="10.76" rx="1"/>
            <rect fill="#FFF" fill-rule="nonzero" x="13.047" y="10.121" width="2.456" height="10.76" rx="1"/>
            <ellipse fill="#36B37E" fill-rule="nonzero" cx="54.496" cy="16.343" rx="3.611" ry="3.692"/>
            <ellipse fill="#FF8C00" fill-rule="nonzero" cx="45.464" cy="16.378" rx="2.407" ry="2.462"/>
            <ellipse fill="#FF8C00" fill-rule="nonzero" cx="36.33" cy="16.378" rx="2.407" ry="2.462"/>
        </g>
        <g transform="translate(898 557)">
            <mask id="r" fill="#fff">
                <use xlink:href="#q"/>
            </mask>
            <use fill="#E5E8EC" fill-rule="nonzero" xlink:href="#q"/>
            <ellipse fill="#000" fill-rule="nonzero" opacity=".028" mask="url(#r)" cx="-11.193" cy="-19.732" rx="58.206" ry="54.003"/>
            <rect fill="#FFF" fill-rule="nonzero" x="5.219" y="10.121" width="2.456" height="10.76" rx="1"/>
            <rect fill="#FFF" fill-rule="nonzero" x="9.133" y="10.121" width="2.456" height="10.76" rx="1"/>
            <rect fill="#FFF" fill-rule="nonzero" x="13.047" y="10.121" width="2.456" height="10.76" rx="1"/>
            <ellipse fill="#36B37E" fill-rule="nonzero" cx="54.496" cy="16.343" rx="3.611" ry="3.692"/>
            <ellipse fill="#FF8C00" fill-rule="nonzero" cx="45.464" cy="16.378" rx="2.407" ry="2.462"/>
            <ellipse fill="#FF8C00" fill-rule="nonzero" cx="36.33" cy="16.378" rx="2.407" ry="2.462"/>
        </g>
        <g transform="translate(810 592)">
            <mask id="t" fill="#fff">
                <use xlink:href="#s"/>
            </mask>
            <use fill="#E5E8EC" fill-rule="nonzero" xlink:href="#s"/>
            <ellipse fill="#000" fill-rule="nonzero" opacity=".028" mask="url(#t)" cx="-11.193" cy="-19.732" rx="58.206" ry="54.003"/>
            <rect fill="#FFF" fill-rule="nonzero" x="5.219" y="10.121" width="2.456" height="10.76" rx="1"/>
            <rect fill="#FFF" fill-rule="nonzero" x="9.133" y="10.121" width="2.456" height="10.76" rx="1"/>
            <rect fill="#FFF" fill-rule="nonzero" x="13.047" y="10.121" width="2.456" height="10.76" rx="1"/>
            <ellipse fill="#36B37E" fill-rule="nonzero" cx="54.496" cy="16.343" rx="3.611" ry="3.692"/>
            <ellipse fill="#FF8C00" fill-rule="nonzero" cx="45.464" cy="16.378" rx="2.407" ry="2.462"/>
            <ellipse fill="#FF8C00" fill-rule="nonzero" cx="36.33" cy="16.378" rx="2.407" ry="2.462"/>
        </g>
        <g transform="translate(898 592)">
            <mask id="v" fill="#fff">
                <use xlink:href="#u"/>
            </mask>
            <use fill="#E5E8EC" fill-rule="nonzero" xlink:href="#u"/>
            <ellipse fill="#000" fill-rule="nonzero" opacity=".028" mask="url(#v)" cx="-11.193" cy="-19.732" rx="58.206" ry="54.003"/>
            <rect fill="#FFF" fill-rule="nonzero" x="5.219" y="10.121" width="2.456" height="10.76" rx="1"/>
            <rect fill="#FFF" fill-rule="nonzero" x="9.133" y="10.121" width="2.456" height="10.76" rx="1"/>
            <rect fill="#FFF" fill-rule="nonzero" x="13.047" y="10.121" width="2.456" height="10.76" rx="1"/>
            <ellipse fill="#36B37E" fill-rule="nonzero" cx="54.496" cy="16.343" rx="3.611" ry="3.692"/>
            <ellipse fill="#FF8C00" fill-rule="nonzero" cx="45.464" cy="16.378" rx="2.407" ry="2.462"/>
            <ellipse fill="#FF8C00" fill-rule="nonzero" cx="36.33" cy="16.378" rx="2.407" ry="2.462"/>
        </g>
        <g transform="translate(810 627)">
            <mask id="x" fill="#fff">
                <use xlink:href="#w"/>
            </mask>
            <use fill="#E5E8EC" fill-rule="nonzero" xlink:href="#w"/>
            <ellipse fill="#000" fill-rule="nonzero" opacity=".028" mask="url(#x)" cx="-11.193" cy="-19.732" rx="58.206" ry="54.003"/>
            <rect fill="#FFF" fill-rule="nonzero" x="5.219" y="10.121" width="2.456" height="10.76" rx="1"/>
            <rect fill="#FFF" fill-rule="nonzero" x="9.133" y="10.121" width="2.456" height="10.76" rx="1"/>
            <rect fill="#FFF" fill-rule="nonzero" x="13.047" y="10.121" width="2.456" height="10.76" rx="1"/>
            <ellipse fill="#36B37E" fill-rule="nonzero" cx="54.496" cy="16.343" rx="3.611" ry="3.692"/>
            <ellipse fill="#FF8C00" fill-rule="nonzero" cx="45.464" cy="16.378" rx="2.407" ry="2.462"/>
            <ellipse fill="#FF8C00" fill-rule="nonzero" cx="36.33" cy="16.378" rx="2.407" ry="2.462"/>
        </g>
        <g transform="translate(898 627)">
            <mask id="z" fill="#fff">
                <use xlink:href="#y"/>
            </mask>
            <use fill="#E5E8EC" fill-rule="nonzero" xlink:href="#y"/>
            <ellipse fill="#000" fill-rule="nonzero" opacity=".028" mask="url(#z)" cx="-11.193" cy="-19.732" rx="58.206" ry="54.003"/>
            <rect fill="#FFF" fill-rule="nonzero" x="5.219" y="10.121" width="2.456" height="10.76" rx="1"/>
            <rect fill="#FFF" fill-rule="nonzero" x="9.133" y="10.121" width="2.456" height="10.76" rx="1"/>
            <rect fill="#FFF" fill-rule="nonzero" x="13.047" y="10.121" width="2.456" height="10.76" rx="1"/>
            <ellipse fill="#36B37E" fill-rule="nonzero" cx="54.496" cy="16.343" rx="3.611" ry="3.692"/>
            <ellipse fill="#FF8C00" fill-rule="nonzero" cx="45.464" cy="16.378" rx="2.407" ry="2.462"/>
            <ellipse fill="#FF8C00" fill-rule="nonzero" cx="36.33" cy="16.378" rx="2.407" ry="2.462"/>
        </g>
        <g transform="translate(810 662)">
            <mask id="B" fill="#fff">
                <use xlink:href="#A"/>
            </mask>
            <use fill="#E5E8EC" fill-rule="nonzero" xlink:href="#A"/>
            <ellipse fill="#000" fill-rule="nonzero" opacity=".028" mask="url(#B)" cx="-11.193" cy="-19.732" rx="58.206" ry="54.003"/>
            <rect fill="#FFF" fill-rule="nonzero" x="5.219" y="10.121" width="2.456" height="10.76" rx="1"/>
            <rect fill="#FFF" fill-rule="nonzero" x="9.133" y="10.121" width="2.456" height="10.76" rx="1"/>
            <rect fill="#FFF" fill-rule="nonzero" x="13.047" y="10.121" width="2.456" height="10.76" rx="1"/>
            <ellipse fill="#36B37E" fill-rule="nonzero" cx="54.496" cy="16.343" rx="3.611" ry="3.692"/>
            <ellipse fill="#FF8C00" fill-rule="nonzero" cx="45.464" cy="16.378" rx="2.407" ry="2.462"/>
            <ellipse fill="#FF8C00" fill-rule="nonzero" cx="36.33" cy="16.378" rx="2.407" ry="2.462"/>
        </g>
        <g transform="translate(898 662)">
            <mask id="D" fill="#fff">
                <use xlink:href="#C"/>
            </mask>
            <use fill="#E5E8EC" fill-rule="nonzero" xlink:href="#C"/>
            <ellipse fill="#000" fill-rule="nonzero" opacity=".028" mask="url(#D)" cx="-11.193" cy="-19.732" rx="58.206" ry="54.003"/>
            <rect fill="#FFF" fill-rule="nonzero" x="5.219" y="10.121" width="2.456" height="10.76" rx="1"/>
            <rect fill="#FFF" fill-rule="nonzero" x="9.133" y="10.121" width="2.456" height="10.76" rx="1"/>
            <rect fill="#FFF" fill-rule="nonzero" x="13.047" y="10.121" width="2.456" height="10.76" rx="1"/>
            <ellipse fill="#36B37E" fill-rule="nonzero" cx="54.496" cy="16.343" rx="3.611" ry="3.692"/>
            <ellipse fill="#FF8C00" fill-rule="nonzero" cx="45.464" cy="16.378" rx="2.407" ry="2.462"/>
            <ellipse fill="#FF8C00" fill-rule="nonzero" cx="36.33" cy="16.378" rx="2.407" ry="2.462"/>
        </g>
        <rect fill="#0065FF" fill-rule="nonzero" x="15" y="758" width="164" height="44" rx="22"/>
        <rect fill="#FFAB00" fill-rule="nonzero" x="345" y="329" width="235" height="44" rx="22"/>
        <rect stroke="#979797" x=".5" y="367.5" width="213" height="60" rx="30"/>
        <rect stroke="#979797" x="745.5" y="772.5" width="204" height="43" rx="21.5"/>
        <rect stroke="#979797" x="342.5" y="533.5" width="241" height="43" rx="21.5"/>
        <rect stroke="#979797" x="696.5" y="372.5" width="273" height="60" rx="30"/>
        <text font-family="Work Sans, sans-serif" font-size="18" font-weight="400" fill="#FFF">
            <tspan x="38" y="787">End customer</tspan>
        </text>
        <text font-family="Work Sans, sans-serif" font-size="18" font-weight="400" fill="#FFF">
            <tspan x="359" y="357">Web Crawling Providers</tspan>
        </text>
        <text font-family="Work Sans, sans-serif" font-size="16" font-weight="400" fill="#64686C">
            <tspan x="37.512" y="393">Request for large-</tspan> <tspan x="24.112" y="412">scale data processing</tspan>
        </text>
        <text font-family="Work Sans, sans-serif" font-size="16" font-weight="400" fill="#64686C">
            <tspan x="778.908" y="800">Raw Data Delivery</tspan>
        </text>
        <text font-family="Work Sans, sans-serif" font-size="16" font-weight="400" fill="#64686C">
            <tspan x="718.584" y="399">Request to l]targeted websites </tspan> <tspan x="767.408" y="418">or search engines</tspan>
        </text>
        <path d="M155.594 603H178c5.523 0 10-4.477 10-10v-89.576c0-5.523-4.477-10-10-10h-61c-5.523 0-10-4.477-10-10V454" stroke="#E0E2E6" stroke-width="3" stroke-linecap="round" stroke-linejoin="round"/>
        <path fill="url(#E)" fill-rule="nonzero" d="M133 585.036L96.822 519 67 612.171 109.575 621z"/>
        <path d="M108 348v-85c0-7.18 5.82-13 13-13h281.572M547.677 249H821c7.18 0 13 5.82 13 13v88M834 445v25.436c0 6.627 5.373 12 12 12h165c6.627 0 12 5.373 12 12V580c0 6.627-5.373 12-12 12h-29.618" stroke="#E0E2E6" stroke-width="3" stroke-linecap="round" stroke-linejoin="round"/>
        <path d="M847.5 730v25.61" stroke="#E0E2E6" stroke-width="3" stroke-linecap="round"/>
        <path d="M725 796h-65.024c-6.628 0-12-5.373-12-12V365c0-6.627-5.373-12-12-12H610" stroke="#E0E2E6" stroke-width="3" stroke-linecap="round" stroke-linejoin="round"/>
        <text font-family="Work Sans, sans-serif" font-size="16" font-weight="400" fill="#64686C">
            <tspan x="378" y="560">Structured Data Delivery</tspan>
        </text>
        <path d="M462.5 386.523v132.02" stroke="#E0E2E6" stroke-width="3" stroke-linecap="round"/>
        <path d="M463 592v177c0 6.627-5.373 12-12 12H199" stroke="#E0E2E6" stroke-width="3" stroke-linecap="round" stroke-linejoin="round"/>
        <path fill="#DFE1E4" fill-rule="nonzero" d="M107 447l7 9h-14zM409 250l-9 7v-14zM834 360l-7-9h14zM979 591l9-7v14zM848 763l-7-9h14zM601 353l9-7v14zM463 526l-7-9h14zM190 781l9-7v14z"/>
    </g>
</svg>
