<svg width="100" height="100">
  <symbol viewBox="0 0 32 32" xmlns="http://www.w3.org/2000/svg" id="menu-icon">
    <path fill="currentColor" d="M4 10h24a2 2 0 0 0 0-4H4a2 2 0 0 0 0 4zm24 4H4a2 2 0 0 0 0 4h24a2 2 0 0 0 0-4zm0 8H4a2 2 0 0 0 0 4h24a2 2 0 0 0 0-4z"></path>
  </symbol>
  <symbol xmlns="http://www.w3.org/2000/svg" viewBox="0 0 357 357" id="close-icon">
    <path fill="currentColor" d="M357 35.7L321.3 0 178.5 142.8 35.7 0 0 35.7l142.8 142.8L0 321.3 35.7 357l142.8-142.8L321.3 357l35.7-35.7-142.8-142.8z"></path>
  </symbol>
  <symbol viewBox="0 0 32 32" xmlns="http://www.w3.org/2000/svg" id="phone-icon">
    <path fill="currentColor" d="M4 10h24a2 2 0 0 0 0-4H4a2 2 0 0 0 0 4zm24 4H4a2 2 0 0 0 0 4h24a2 2 0 0 0 0-4zm0 8H4a2 2 0 0 0 0 4h24a2 2 0 0 0 0-4z"></path>
  </symbol>
  <symbol viewBox="0 0 32 32" xmlns="http://www.w3.org/2000/svg" id="email-icon">
    <path fill="currentColor" d="M4 10h24a2 2 0 0 0 0-4H4a2 2 0 0 0 0 4zm24 4H4a2 2 0 0 0 0 4h24a2 2 0 0 0 0-4zm0 8H4a2 2 0 0 0 0 4h24a2 2 0 0 0 0-4z"></path>
  </symbol>
  <symbol viewBox="0 0 32 32" xmlns="http://www.w3.org/2000/svg" id="twitter-icon">
    <path fill="currentColor" d="M4 10h24a2 2 0 0 0 0-4H4a2 2 0 0 0 0 4zm24 4H4a2 2 0 0 0 0 4h24a2 2 0 0 0 0-4zm0 8H4a2 2 0 0 0 0 4h24a2 2 0 0 0 0-4z"></path>
  </symbol>
  <symbol viewBox="0 0 32 32" xmlns="http://www.w3.org/2000/svg" id="instagram-icon">
    <path fill="currentColor" d="M4 10h24a2 2 0 0 0 0-4H4a2 2 0 0 0 0 4zm24 4H4a2 2 0 0 0 0 4h24a2 2 0 0 0 0-4zm0 8H4a2 2 0 0 0 0 4h24a2 2 0 0 0 0-4z"></path>
  </symbol>
  <symbol viewBox="0 0 32 32" xmlns="http://www.w3.org/2000/svg" id="facebook-icon">
     <path fill="currentColor" d="M4 10h24a2 2 0 0 0 0-4H4a2 2 0 0 0 0 4zm24 4H4a2 2 0 0 0 0 4h24a2 2 0 0 0 0-4zm0 8H4a2 2 0 0 0 0 4h24a2 2 0 0 0 0-4z"></path>
  </symbol>
</svg>
