<svg viewBox="0 0 294 580" xmlns="http://www.w3.org/2000/svg">
    <g fill="none" fill-rule="evenodd">
        <path d="M148.61 42v21.06" stroke="#E0E2E6" stroke-width="3" stroke-linecap="round" stroke-linejoin="round"/>
        <path fill="#DFE1E4" fill-rule="nonzero" d="M148.697 67.646l-7-9h14z"/>
        <path d="M148.61 118v21.06" stroke="#E0E2E6" stroke-width="3" stroke-linecap="round" stroke-linejoin="round"/>
        <path fill="#DFE1E4" fill-rule="nonzero" d="M148.697 143.646l-7-9h14z"/>
        <path d="M148.61 194v21.06" stroke="#E0E2E6" stroke-width="3" stroke-linecap="round" stroke-linejoin="round"/>
        <path fill="#DFE1E4" fill-rule="nonzero" d="M148.697 219.646l-7-9h14z"/>
        <path d="M148.61 284v21.06" stroke="#E0E2E6" stroke-width="3" stroke-linecap="round" stroke-linejoin="round"/>
        <path fill="#DFE1E4" fill-rule="nonzero" d="M148.697 309.646l-7-9h14z"/>
        <path d="M148.61 360v21.06" stroke="#E0E2E6" stroke-width="3" stroke-linecap="round" stroke-linejoin="round"/>
        <path fill="#DFE1E4" fill-rule="nonzero" d="M148.697 385.646l-7-9h14z"/>
        <path d="M148.61 436v21.06" stroke="#E0E2E6" stroke-width="3" stroke-linecap="round" stroke-linejoin="round"/>
        <path fill="#DFE1E4" fill-rule="nonzero" d="M148.697 461.646l-7-9h14z"/>
        <path d="M148.61 512v21.06" stroke="#E0E2E6" stroke-width="3" stroke-linecap="round" stroke-linejoin="round"/>
        <path fill="#DFE1E4" fill-rule="nonzero" d="M148.697 537.646l-7-9h14z"/>
        <g transform="translate(87)">
            <rect fill="#0065FF" fill-rule="nonzero" width="122" height="34" rx="17"/>
            <text font-family="Work Sans, sans-serif" font-size="14" font-weight="400" fill="#FFF">
                <tspan x="17" y="21">End customer</tspan>
            </text>
        </g>
        <g transform="translate(88 546)">
            <rect fill="#0065FF" fill-rule="nonzero" width="121" height="34" rx="17"/>
            <text font-family="Work Sans, sans-serif" font-size="14" font-weight="400" fill="#FFF">
                <tspan x="16" y="21">End customer</tspan>
            </text>
        </g>
        <g transform="translate(53 152)">
            <rect fill="#FFAB00" fill-rule="nonzero" width="190" height="34" rx="17"/>
            <text font-family="Work Sans, sans-serif" font-size="14" font-weight="400" fill="#FFF">
                <tspan x="15" y="22">Web Crawling Providers</tspan>
            </text>
        </g>
        <g transform="translate(57 394)">
            <rect fill="#FFAB00" fill-rule="nonzero" width="182" height="34" rx="17"/>
            <text font-family="Work Sans, sans-serif" font-size="14" font-weight="400" fill="#FFF">
                <tspan x="12" y="21">Web Crawling Providers</tspan>
            </text>
        </g>
        <g transform="translate(0 76)">
            <rect stroke="#979797" fill="#FFF" fill-rule="nonzero" x=".5" y=".5" width="293" height="33" rx="16.5"/>
            <text font-family="Work Sans, sans-serif" font-size="14" font-weight="400" fill="#64686C">
                <tspan x="17" y="21">Request for large-scale data processing</tspan>
            </text>
        </g>
        <g transform="translate(72 318)">
            <rect stroke="#979797" fill="#FFF" fill-rule="nonzero" x=".5" y=".5" width="152" height="33" rx="16.5"/>
            <text font-family="Work Sans, sans-serif" font-size="14" font-weight="400" fill="#64686C">
                <tspan x="18" y="21">Raw Data Delivery</tspan>
            </text>
        </g>
        <g transform="translate(52 470)">
            <rect stroke="#979797" fill="#FFF" fill-rule="nonzero" x=".5" y=".5" width="188" height="33" rx="16.5"/>
            <text font-family="Work Sans, sans-serif" font-size="14" font-weight="400" fill="#64686C">
                <tspan x="13" y="21">Structured Data Delivery</tspan>
            </text>
        </g>
        <g transform="translate(36 228)">
            <rect stroke="#979797" fill="#FFF" fill-rule="nonzero" x=".5" y=".5" width="224" height="47" rx="23.5"/>
            <text font-family="Work Sans, sans-serif" font-size="14" font-weight="400" fill="#64686C">
                <tspan x="15.403" y="21">Request to targeted websites</tspan> <tspan x="52.461" y="37"> or search engines</tspan>
            </text>
        </g>
    </g>
</svg>
